<svg width="159" height="164" viewBox="0 0 159 164" fill="none" xmlns="http://www.w3.org/2000/svg">
<path d="M158.295 81.8131C158.295 122.859 128.661 156.791 90.1677 162.299C86.5672 162.814 82.8846 163.081 79.1473 163.081C74.8313 163.081 70.5973 162.725 66.4681 162.042C28.7858 155.813 0 122.26 0 81.8084C0 36.9253 35.4353 0.540527 79.1473 0.540527C122.859 0.540527 158.295 36.9253 158.295 81.8084V81.8131Z" fill="#5865F2"/>
<path d="M116.073 47.0289C109.282 43.828 101.999 41.4694 94.3837 40.1217C94.247 40.0936 94.1057 40.1591 94.0373 40.2901C93.0985 42.0029 92.0638 44.2304 91.3346 45.9853C83.1446 44.7265 74.9956 44.7265 66.9742 45.9853C66.2496 44.193 65.174 41.9982 64.2306 40.2901C64.1577 40.1638 64.0209 40.0983 63.8796 40.1217C56.2684 41.4694 48.9854 43.8233 42.19 47.0289C42.1308 47.057 42.0806 47.0991 42.0487 47.1552C28.2346 68.3497 24.4472 89.02 26.3067 109.433C26.3158 109.531 26.3705 109.629 26.4435 109.69C35.5587 116.565 44.3868 120.734 53.0508 123.5C53.1875 123.542 53.3379 123.491 53.4245 123.374C55.4754 120.5 57.303 117.468 58.8663 114.281C58.9574 114.094 58.8663 113.874 58.6794 113.799C55.7808 112.671 53.0234 111.295 50.3663 109.732C50.1567 109.606 50.1385 109.297 50.3345 109.152C50.895 108.722 51.4511 108.277 51.9843 107.823C52.08 107.739 52.2167 107.725 52.3307 107.776C69.7726 115.952 88.6502 115.952 105.887 107.776C106.001 107.72 106.133 107.739 106.233 107.818C106.767 108.268 107.327 108.722 107.888 109.152C108.079 109.302 108.07 109.606 107.86 109.732C105.208 111.323 102.446 112.671 99.5428 113.794C99.356 113.869 99.2694 114.094 99.3606 114.281C100.96 117.463 102.788 120.496 104.798 123.369C104.88 123.491 105.035 123.542 105.172 123.5C113.877 120.734 122.709 116.56 131.824 109.69C131.906 109.629 131.957 109.541 131.961 109.438C134.185 85.8331 128.238 65.3313 116.205 47.1599C116.178 47.0991 116.128 47.057 116.069 47.0289H116.073ZM61.4732 97.0036C56.2229 97.0036 51.8977 92.0524 51.8977 85.9735C51.8977 79.8945 56.1408 74.9434 61.4732 74.9434C66.8056 74.9434 71.1353 79.9366 71.0488 85.9735C71.0488 92.0524 66.8056 97.0036 61.4732 97.0036ZM96.8813 97.0036C91.6309 97.0036 87.3057 92.0524 87.3057 85.9735C87.3057 79.8945 91.5489 74.9434 96.8813 74.9434C102.214 74.9434 106.543 79.9366 106.457 85.9735C106.457 92.0524 102.255 97.0036 96.8813 97.0036Z" fill="white"/>
</svg>
