<svg width="159" height="163" viewBox="0 0 159 163" fill="none" xmlns="http://www.w3.org/2000/svg">
<path d="M158.299 81.2679C158.299 122.314 128.666 156.246 90.1722 161.754C86.5717 162.269 82.8892 162.536 79.1519 162.536C74.8359 162.536 70.6019 162.18 66.4727 161.497C28.7813 155.268 0 121.719 0 81.2679C0 36.3848 35.4354 0 79.1474 0C122.859 0 158.295 36.3848 158.295 81.2679H158.299Z" fill="#6C9BE2"/>
<path d="M32 45V116H126.667V45H32ZM112.546 52.8889L79.3333 83.0639L46.1211 52.8889H112.546ZM39.8889 57.8589L55.3906 71.9406L39.8889 97.8161V57.8589ZM42.9261 108.111L61.3467 77.3839L79.3333 93.7139L97.32 77.3839L115.741 108.111H42.9261ZM118.778 97.8161L103.276 71.9406L118.778 57.8589V97.8161Z" fill="white"/>
</svg>
