<svg xmlns="http://www.w3.org/2000/svg" xml:space="preserve" width="439.61" height="390" viewBox="0 0 116.31 103.19"><g style="display:inline"><g style="display:inline"><path d="m65.07 105.38 20.87-.3a1.58 1.58 0 0 0 1.53-1.45c.4-6.09 1.97-29.99 2-38.42 0-.74-.63-1.35-1.37-1.34l-19.05.03a1.53 1.53 137.62 0 0-1.51 1.38l-3.64 38.84a1.16 1.16 47.26 0 0 1.17 1.26z" style="display:inline;fill:#5f5f5f;fill-opacity:1;fill-rule:nonzero;stroke-width:.264583" transform="matrix(1.36 0 0 1.36 -75.8 -47.65)"/><path d="m51.49 106.07 34.77-1.15a1.76 1.76 133.45 0 0 1.7-1.8l-.56-26.56a1.72 1.72 41.6 0 0-1.89-1.68L53.6 78a2.11 2.11 134.48 0 0-1.9 1.94l-1.93 24.32a1.68 1.68 46.33 0 0 1.73 1.8zM86.76 113.95l-1.83 36.8a2.4 2.4 136.78 0 1-2.42 2.27l-33.9-.42a1.75 1.75 46.76 0 1-1.73-1.84l1.83-37.36a2.39 2.39 136.75 0 1 2.41-2.27l33.37.4a2.3 2.3 46.77 0 1 2.27 2.42z" style="display:inline;fill:#5f5f5f;fill-opacity:1;fill-rule:nonzero;stroke-width:.264583" transform="matrix(1.36 0 0 1.36 -17.3 -112.22)"/><g style="display:inline"><path d="m49.03 99.81 12.28.44a2.1 2.1 136.96 0 0 2.17-2.03L65 51.51a1.77 1.77 46.46 0 0-1.73-1.83l-12.18-.22a1.96 1.96 136.7 0 0-2 1.88l-1.9 46.49a1.9 1.9 47.2 0 0 1.84 1.98z" style="display:inline;fill:#5f5f5f;fill-opacity:1;fill-rule:nonzero;stroke-width:.264583" transform="matrix(1.36 0 0 1.36 9.68 31.52)"/><path d="m46.6 99.23 14.45.94a2.3 2.3 137.8 0 0 2.44-2.21L65 51.5a1.74 1.74 46 0 0-1.73-1.8l-15.11-.03a1.98 1.98 135.96 0 0-1.98 1.91l-1.44 45.6a1.98 1.98 47.77 0 0 1.86 2.04z" style="display:inline;fill:#5f5f5f;fill-opacity:1;fill-rule:nonzero;stroke-width:.264583" transform="matrix(1.36 0 0 1.36 -16.07 31.07)"/><path d="m46.6 99.23 14.45.94a2.3 2.3 137.8 0 0 2.44-2.21L65 51.5a1.74 1.74 46 0 0-1.73-1.8l-15.5-.03a1.96 1.96 135.73 0 0-1.97 1.91l-1.07 45.6a2 2 47.54 0 0 1.87 2.04z" style="display:inline;fill:#5f5f5f;fill-opacity:1;fill-rule:nonzero;stroke-width:.264583" transform="matrix(1.36 0 0 1.33 -45.69 33.16)"/></g><g style="display:inline"><path d="m47.91 101.16 15.9 1.51a2.43 2.43 138.89 0 0 2.67-2.32l1.96-48.23a1.79 1.79 47.26 0 0-1.72-1.86l-16.86-.64a1.92 1.92 137.18 0 0-1.99 1.84l-1.8 47.6a2.03 2.03 48.8 0 0 1.84 2.1Z" style="display:inline;fill:#5f5f5f;fill-opacity:1;fill-rule:nonzero;stroke-width:.264583" transform="matrix(1.36 0 0 1.36 39.93 31.27)"/><path d="m46.23 92.07 23.66-.15a3.27 3.27 141.45 0 0 3.16-2.51l9.01-38.25a1.38 1.38 50.84 0 0-1.38-1.7l-31.03.86a2.14 2.14 136.56 0 0-2.07 1.96l-3.1 37.89a1.76 1.76 47.17 0 0 1.75 1.9z" style="display:inline;fill:#5f5f5f;fill-opacity:1;fill-rule:nonzero;stroke-width:.264583" transform="matrix(1.36 0 0 1.36 44.87 -29.27)"/><path d="m51.2 106.1 9.41-.2a3.73 3.73 138.35 0 0 3.62-3.21l6.62-48.07a1.9 1.9 51.89 0 0-1.68-2.14l-19.21-2a1.72 1.72 137.14 0 0-1.9 1.76l1.5 52.3a1.6 1.6 43.6 0 0 1.63 1.56z" style="display:inline;fill:#5f5f5f;fill-opacity:1;fill-rule:nonzero;stroke-width:.264583" transform="matrix(1.36 0 0 1.36 42.28 -114.27)"/></g><g style="display:inline"><path d="m53.6 97.15 9.05.46a1.85 1.85 136.73 0 0 1.95-1.84l.44-43.66a2.34 2.34 44.87 0 0-2.38-2.36l-21.36.3a2.86 2.86 126.1 0 0-2.7 3.7l12.7 41.6a2.54 2.54 37.95 0 0 2.3 1.8z" style="display:inline;fill:#5f5f5f;fill-opacity:1;fill-rule:nonzero;stroke-width:.264583" transform="matrix(1.36 0 0 1.36 -76.2 31.4)"/><path d="m63.84 107.27 22.77-.16a2.2 2.2 0 0 0 2.12-1.93c.7-6.65 2.94-28.86 3.17-37.71a2.22 2.22 0 0 0-2.09-2.22l-21.47-1.2a2.9 2.9 139.37 0 0-3.04 2.62l-3.72 38.12a2.26 2.26 47.58 0 0 2.26 2.48z" style="display:inline;fill:#5f5f5f;fill-opacity:1;fill-rule:nonzero;stroke-width:.264583" transform="matrix(1.36 0 0 1.36 -112.39 -50.53)"/><path d="m.3 104.66 42.66 2.07a2.27 2.27 139.7 0 0 2.36-2l3.65-31.46a2.66 2.66 50.06 0 0-2.48-2.96l-40.85-2.5a3.13 3.13 140.87 0 0-3.3 2.68l-4.5 31.18a2.62 2.62 50.5 0 0 2.46 3z" style="display:inline;fill:#5f5f5f;fill-opacity:1;fill-rule:nonzero;stroke-width:.264583" transform="matrix(1.36 0 0 1.36 -17.3 -112.22)"/></g></g><path d="m49.54 112.74-1.72 38.75a.41.41 46.62 0 0 .4.43l11.74.15a.44.44 138.2 0 0 .44-.4v-.03a.34.34 139.54 0 1 .37-.31l1.93.11a.31.31 136.68 0 0 .33-.3v-.48a.47.47 136.59 0 1 .5-.46l4.65.25a.37.37 45.16 0 1 .34.35l.05.87c0 .18.16.33.34.33 4.73.06 9.12.1 13.66.14.43 0 .8-.34.84-.77l2.48-34.88a4.19 4.19 47.04 0 0-4.18-4.5h-9.43a.33.33 134.92 0 0-.32.34v.09a.32.32 135.53 0 1-.33.32l-21.6-.46a.48.48 136.87 0 0-.49.46z" style="fill:#211f21;fill-opacity:1;fill-rule:nonzero;stroke-width:.264583" transform="matrix(1.36 0 0 1.36 -17.3 -112.22)"/><g style="display:inline" transform="matrix(1.36 0 0 1.36 -14.74 -63.69)"><circle cx="64.96" cy="96.12" r="5" style="fill:#e6e0e9;fill-opacity:1;fill-rule:nonzero;stroke-width:.249636"/><path d="M63.47 98.73H61.9l2.44-5.9h1.25l2.44 5.9h-1.57l-.54-1.44-.12-.58-.82-2.19h-.03l-.82 2.2-.12.57zm3.12-1.08h-3.25v-1.2h3.25z" style="font-size:12px;display:inline;fill:#211f21;fill-opacity:1;fill-rule:nonzero;stroke:#211f21;stroke-width:0;stroke-linecap:round;stroke-dasharray:none;stroke-opacity:1" vector-effect="non-scaling-stroke"/></g><g style="display:inline"><path d="m76.58 100.69-.31 1.24a.59.59 142.02 0 1-.58.45h-2.64a.35.35 133.57 0 0-.35.37l.09 1.68a.33.33 133.19 0 1-.33.35l-21.56.29a.53.53 47.81 0 1-.53-.6l1.43-12.79a.32.32 150.27 0 1 .45-.26l2.69 1.2a.4.4 157.7 0 0 .53-.21l2.99-7.68a.58.58 156.82 0 1 .76-.33l20.43 8.42a4.96 4.96 32.49 0 1 1.47.94 3.77 3.77 109.15 0 1-2.28 6.54l-1.97.15a.32.32 139.88 0 0-.3.24z" style="fill:#211f21;fill-opacity:1;stroke-width:.264583" transform="matrix(1.36 0 0 1.36 -17.3 -112.22)"/><g transform="matrix(1.36 0 0 1.36 -20.47 -111.16)"><circle cx="64.96" cy="96.12" r="5" style="fill:#e6e0e9;fill-opacity:1;fill-rule:nonzero;stroke-width:.249636"/><path d="M65.7 99.25h-1.32v-1.18h1.24q.34 0 .55-.19.2-.19.2-.52 0-.32-.22-.5-.23-.17-.59-.17h-1.2v-1.01h.9q.22 0 .37-.1.15-.08.23-.23.08-.15.08-.35 0-.33-.21-.48-.21-.15-.55-.15h-.82v-1.18h.8q.66 0 1.13.2.46.2.7.55.25.35.25.8 0 .35-.15.66-.15.31-.4.54-.24.23-.52.34l.03-.33q.4.06.75.25.34.18.55.5.2.3.2.79 0 .52-.25.92-.26.4-.71.62-.46.22-1.05.22zm-1.21 0h-1.34v-6.06h1.34z" style="font-size:12px;display:inline;fill:#211f21;fill-opacity:1;fill-rule:nonzero;stroke:#211f21;stroke-width:0;stroke-linecap:round;stroke-dasharray:none;stroke-opacity:1" vector-effect="non-scaling-stroke"/></g></g><path d="m41.47 139.12-.05 11.92a.55.55 134.95 0 1-.55.55l-17.65.1a.55.55 46.33 0 1-.56-.58l.62-11.73a.63.63 135.97 0 1 .62-.6l16.9-.31a.65.65 44.59 0 1 .67.65z" style="fill:#211f21;fill-opacity:1;fill-rule:nonzero;stroke-width:.264583" transform="matrix(1.36 0 0 1.36 -17.3 -112.22)"/><g style="display:inline" transform="matrix(1.36 0 0 1.36 -62.1 -45.47)"><circle cx="64.96" cy="96.12" r="5" style="fill:#e6e0e9;fill-opacity:1;fill-rule:nonzero;stroke-width:.249636"/><path d="M64.84 99.2h-2.18v-6.06h2.08c.39 0 .77.06 1.13.18.37.12.7.3.99.56.29.24.52.55.69.93.17.37.25.81.25 1.32 0 .5-.08.95-.25 1.34A2.8 2.8 0 0 1 65.92 99c-.35.13-.7.2-1.08.2zm-.83-4.86V98h.87a1.58 1.58 0 0 0 1.42-1c.1-.25.15-.54.15-.87 0-.34-.05-.62-.15-.85a1.5 1.5 0 0 0-.9-.85c-.19-.06-.36-.09-.52-.09z" style="font-size:12px;display:inline;fill:#211f21;fill-opacity:1;fill-rule:nonzero;stroke:#000;stroke-width:0;stroke-linecap:round;stroke-dasharray:none" vector-effect="non-scaling-stroke"/></g><path d="m25.56 113.24-1.2 17.04a.73.73 47.96 0 0 .71.78l5.83.2a.21.21 136.8 0 0 .22-.21v-.3a.14.14 137.3 0 1 .16-.13l10.98.55a.28.28 138.39 0 0 .3-.26l.11-1.68a.5.5 79.08 0 0-.05-.26l-.23-.48a.7.7 77.57 0 1-.07-.31l.04-2.82a.4.4 111.13 0 1 .1-.25l.46-.52a.66.66 111.95 0 0 .16-.4l.43-9.82a.52.52 48.47 0 0-.48-.54l-16.65-1.29a.76.76 139.22 0 0-.82.7z" style="fill:#211f21;fill-opacity:1;fill-rule:nonzero;stroke-width:.264583" transform="matrix(1.36 0 0 1.36 -17.3 -112.22)"/><g style="display:inline" transform="matrix(1.36 0 0 1.36 -61.1 -75.8)"><circle cx="64.96" cy="96.12" r="5" style="fill:#e6e0e9;fill-opacity:1;fill-rule:nonzero;stroke-width:.249636"/><path d="M66.74 99.24h-3.5v-6h3.5v1.19h-2.17v1.2h1.8v1.15h-1.8v1.27h2.17z" style="font-size:12px;display:inline;fill:#211f21;fill-opacity:1;fill-rule:nonzero;stroke:#000;stroke-width:0;stroke-linecap:round;stroke-dasharray:none" vector-effect="non-scaling-stroke"/></g><path d="M70.76 87.31a3.04 3.04 0 0 0-2.79 4.3l2.79 6.31 2.66-6.09a3.04 3.04 0 0 0-2.66-4.52zm0 1.52a1.52 1.52 0 0 1 1.52 1.53 1.52 1.52 0 0 1-1.52 1.52 1.52 1.52 0 0 1-1.52-1.52 1.52 1.52 0 0 1 1.52-1.53z" style="fill:#e40032;fill-opacity:1;stroke-width:.0222027" transform="matrix(1.36 0 0 1.36 -17.3 -112.22)"/><path d="M82.85 108.14a3.04 3.04 0 0 0-2.78 4.3l2.78 6.3 2.67-6.08a3.04 3.04 0 0 0-2.67-4.52zm0 1.52a1.52 1.52 0 0 1 1.53 1.52 1.52 1.52 0 0 1-1.53 1.52 1.52 1.52 0 0 1-1.52-1.52 1.52 1.52 0 0 1 1.52-1.52zM38.6 110.45a3.04 3.04 0 0 0-2.79 4.3l2.8 6.3 2.66-6.08a3.04 3.04 0 0 0-2.67-4.52zm0 1.52a1.52 1.52 0 0 1 1.52 1.52 1.52 1.52 0 0 1-1.52 1.53 1.52 1.52 0 0 1-1.52-1.53 1.52 1.52 0 0 1 1.52-1.52z" style="display:inline;fill:#e40032;fill-opacity:1;stroke-width:.0222027" transform="matrix(1.36 0 0 1.36 -17.3 -112.22)"/></g></svg>