<svg xmlns="http://www.w3.org/2000/svg" xmlns:xlink="http://www.w3.org/1999/xlink" viewBox="0 0 201.44 107.19">
  <g id="Calque_2" data-name="Calque 2">
    <g id="Layer_1" data-name="Layer 1">
      <path class="cls-1"
        d="M0,59.9c.27,5.73,11.38,10.91,28.64,13.2a109.32,109.32,0,0,0,11.6,1.05c2.1.12,8.16.35,8.16.35l.06-1.28-9.16-.39a74.76,74.76,0,0,1-8.55-.73c-19.08-2.35-29.07-8-29.27-12.28Z" />
      <path class="cls-2"
        d="M201.43,46.83c-.25-5.45-10.78-9.34-31.31-11.58a325.77,325.77,0,0,0-34.68-1.63h0c-11.36,0-23.51.42-36.12,1.23a462.79,462.79,0,0,0-63.23,8.39c-1.55.33-3.06.72-4.52,1.1L29.12,45C15.68,48.21-.29,53.45,0,59.9l1.48-.08c-.2-4.15,10.27-9.18,28-13.47,1.36-.33,2.75-.6,4.22-.88l2.76-.55c16.59-3.5,38.37-6.2,63-7.8C110.77,36.39,122,36,132.75,36a345.19,345.19,0,0,1,37,1.78c20.49,2.24,27.94,6.28,28.08,9.29Z" />
      <path class="cls-2"
        d="M76.65,20.79h-47l-21,84.28H56L59.21,92H27.67l6.06-24.18h27L64,54.8H36.87l5.2-20.91h31.2l3.38-13.1Z" />
      <path class="cls-2"
        d="M71.94,0h0c-1.89,0-3.73,1-7.07,2.86L64.58,3,48,13l-2.3,1.38,2.67.25,3.6.35h.18l.17-.05,19-5.85c2.19-.55,4.38-1.29,5-3.69a4.21,4.21,0,0,0-.48-3.2,4.12,4.12,0,0,0-2.5-2A5.09,5.09,0,0,0,71.94,0Z" />
      <path class="cls-2"
        d="M101.5,75l-8.15.58L91,75.75,86.05,95.57h15.68l5.21-21C105.13,74.71,103.33,74.87,101.5,75Z" />
      <path class="cls-2"
        d="M83.34,11.29l-3.26,13.1h23.63l-.53,2.12L92.48,69.64l2.38-.16L101.1,69c2.48-.19,4.93-.4,7.37-.62l10.92-44H141.6l2.73-11,.53-2.12Z" />
      <path class="cls-2"
        d="M193,11a38.8,38.8,0,0,0-20-5.62C165,5.38,158,8.08,153,13.17a24.66,24.66,0,0,0-7,17.17c0,7.44,3.27,12.77,7.18,17,1.92,2.08,4,3.91,5.9,5.61a43.58,43.58,0,0,1,5.06,5.29,17.44,17.44,0,0,1,1.1,1.6l.26-.06c1.72-.39,3.41-.8,5-1.21q5.61-1.43,10.19-2.92a27.26,27.26,0,0,0-2.82-4.25,59.45,59.45,0,0,0-4.65-5l-.06-.06L170.65,44a53.18,53.18,0,0,1-4-3.71c-2.78-2.92-5-6.29-5-10.38,0-5.69,4.33-11.73,12.34-11.73,3,0,8.83.85,14.89,6.54l1.1,1,.36-1.47,3-12,.07-.3.16-.63Z" />
      <path class="cls-2"
        d="M182.77,61.29c-3.2,1.05-6.77,2.09-10.75,3.11-1.13.29-2.31.57-3.5.86l-1.3.31a15.5,15.5,0,0,1,.11,1.7c0,6.78-4.32,13.61-14,13.61-6.49,0-12.63-2.74-18.24-8.16L134,71.66l-.37,1.48-3.25,13.09-.16.62.55.34c.49.31,1,.6,1.5.89a44.14,44.14,0,0,0,21.82,5.67c19.22,0,29.27-13.5,29.27-26.83A25.21,25.21,0,0,0,182.77,61.29Z" />
      <path class="cls-4"
        d="M197.85,47.08c.11,1.86-5.41,6.84-27.12,12.38-18.45,4.7-43.15,8.41-69.56,10.45-5.7.44-29.83,2.06-35.62,2.33h-.37l-.53,4.34.51,0c5.69-.27,30.16-2,36.28-2.44a500,500,0,0,0,52.49-6.69c6.43-1.2,12.45-2.52,17.87-3.9,20.3-5.17,30-10.64,29.63-16.71Z" />
    </g>
  </g>
</svg>