<?xml version="1.0" encoding="UTF-8" standalone="no"?>
<!DOCTYPE svg PUBLIC "-//W3C//DTD SVG 1.1//EN" "http://www.w3.org/Graphics/SVG/1.1/DTD/svg11.dtd">
<svg width="100%" height="100%" viewBox="0 0 256 256" version="1.1" xmlns="http://www.w3.org/2000/svg" xmlns:xlink="http://www.w3.org/1999/xlink" xml:space="preserve" xmlns:serif="http://www.serif.com/" style="fill-rule:evenodd;clip-rule:evenodd;stroke-linejoin:round;stroke-miterlimit:2;">
    <g transform="matrix(1.43884,0,0,1.444866,-125.179049,-131.224139)">
        <path d="M167,92C161.453,95.758 155,105 153,112C151.26,118.09 152.052,124.939 153,131C158.711,152.15 173,153 173,165L173,187L207,187L207,165C207,153 224,147 228,131C229.18,124.772 229.572,118.473 228,112C224.806,101.859 220.12,96.269 215,92C212.051,89.688 208,91 208,94L208,115C208,121 204,124 200,124L180,124C175,124 173,120 173,115L173,94C173,91 170.054,89.931 167,92Z" style="fill:rgb(239,61,69);"/>
    </g>
    <g transform="matrix(1.43884,0,0,1.444866,-125.179049,-131.224139)">
        <path d="M142,192C158.897,192.047 160,197 164,197L201,197C207.003,197 213.003,202.247 213,208C212.997,213.584 207.823,219.661 202,220C201.83,220.01 179,220 179,220C173,220 173,229 179,229L204,229C210,229 221,222 221,209L246,182C256.02,173.3 270.086,187.254 263,197C252,210 232,234 232,234C232,234 213,258 204,258L136,258L126,268L87,231L122,198C126.393,194.998 130.726,191.969 142,192Z" style="fill:rgb(239,61,69);"/>
    </g>
</svg>
