<svg width="159" height="163" viewBox="0 0 159 163" fill="none" xmlns="http://www.w3.org/2000/svg">
<path d="M158.299 81.2679C158.299 122.314 128.666 156.246 90.1722 161.754C86.5717 162.269 82.8892 162.536 79.1519 162.536C74.8359 162.536 70.6019 162.18 66.4727 161.497C28.7813 155.268 0 121.719 0 81.2679C0 36.3848 35.4354 0 79.1474 0C122.859 0 158.295 36.3848 158.295 81.2679H158.299Z" fill="#1877F7"/>
<path d="M90.1722 65.2491V82.9525H111.502L108.125 106.805H90.1722V161.754C86.5717 162.269 82.8891 162.536 79.1519 162.536C74.8358 162.536 70.6018 162.18 66.4726 161.497V106.805H46.802V82.9525H66.4726V61.2948C66.4726 47.8546 77.0827 36.9556 90.1767 36.9556V36.9696C90.2132 36.9696 90.2497 36.9556 90.2861 36.9556H111.506V57.5791H97.6421C93.5175 57.5791 90.1767 61.0093 90.1767 65.2444L90.1722 65.2491Z" fill="white"/>
</svg>
