<?xml version="1.0" standalone="no"?>
<!DOCTYPE svg PUBLIC "-//W3C//DTD SVG 20010904//EN"
 "http://www.w3.org/TR/2001/REC-SVG-20010904/DTD/svg10.dtd">
<svg version="1.0" xmlns="http://www.w3.org/2000/svg"
 width="256.000000pt" height="256.000000pt" viewBox="0 0 256.000000 256.000000"
 preserveAspectRatio="xMidYMid meet">

<g transform="translate(0.000000,256.000000) scale(0.100000,-0.100000)"
fill="#E82634" stroke="none">
<path d="M1066 2484 c-411 -74 -772 -369 -925 -756 -199 -504 -47 -1091 369
-1419 319 -251 707 -335 1092 -235 232 61 425 178 595 360 166 178 278 411
314 656 19 130 7 362 -25 484 -63 237 -183 439 -358 601 -173 160 -394 270
-626 310 -106 19 -330 18 -436 -1z m422 -380 c260 -53 500 -247 607 -488 l25
-56 -50 0 c-48 0 -50 1 -71 43 -98 192 -277 339 -485 399 -64 18 -103 22 -209
22 -119 0 -138 -3 -221 -32 -133 -45 -222 -102 -319 -204 -142 -149 -208 -313
-208 -523 -1 -281 149 -530 403 -668 119 -65 195 -82 360 -82 147 1 173 6 313
60 15 6 17 1 17 -39 0 -56 -12 -65 -130 -96 -116 -31 -289 -31 -410 -1 -244
61 -451 230 -560 456 -69 143 -85 212 -85 375 0 139 9 191 54 311 96 255 341
462 621 525 80 18 257 17 348 -2z m6 -150 c182 -47 363 -191 447 -356 l19 -38
-52 0 c-52 0 -54 1 -82 46 -69 109 -192 204 -318 245 -62 20 -92 24 -203 24
-123 -1 -135 -3 -210 -33 -283 -114 -444 -408 -381 -701 38 -179 162 -339 327
-420 124 -61 241 -80 367 -58 54 9 119 28 158 46 36 17 70 31 76 31 5 0 8 -21
6 -47 -3 -47 -4 -48 -58 -75 -68 -33 -188 -58 -275 -58 -296 0 -574 200 -670
481 -40 118 -47 290 -15 405 64 236 240 420 475 499 112 37 266 41 389 9z
m-44 -149 c99 -26 180 -74 257 -151 40 -40 73 -78 73 -84 0 -5 -22 -10 -51
-10 -46 0 -56 4 -101 45 -298 268 -768 66 -769 -331 -1 -44 5 -100 11 -125 41
-154 174 -285 330 -325 132 -34 282 -4 388 76 29 22 55 40 57 40 3 0 5 -24 5
-53 0 -61 -7 -70 -87 -112 -77 -40 -147 -55 -255 -55 -163 0 -282 52 -397 176
-132 140 -179 323 -131 508 27 107 63 169 145 251 113 114 229 163 385 164 47
0 110 -6 140 -14z m660 -656 l0 -250 -42 -62 -43 -62 -3 268 -2 267 -320 0
-320 0 0 45 0 45 365 0 365 0 0 -251z m-152 -173 l2 -270 -42 -43 c-23 -24
-46 -43 -50 -43 -4 0 -8 119 -8 265 l0 265 -240 0 -240 0 0 50 0 50 288 -2
287 -3 3 -269z m-158 -149 l0 -263 -39 -22 c-21 -12 -41 -22 -45 -22 -3 0 -6
108 -6 240 l0 240 -165 0 -165 0 0 45 0 45 210 0 210 0 0 -263z"/>
</g>
</svg>
