<svg width="160" height="163" viewBox="0 0 160 163" fill="none" xmlns="http://www.w3.org/2000/svg">
<defs>
<linearGradient id="paint0_linear_3644_4421" x1="23.9661" y1="138.739" x2="138.86" y2="26.8438" gradientUnits="userSpaceOnUse">
<stop stop-color="#FAAD4F"/>
<stop offset="0.35" stop-color="#DD2A7B"/>
<stop offset="0.62" stop-color="#9537B0"/>
<stop offset="1" stop-color="#515BD4"/>
</linearGradient>
</defs>
<path d="M159.081 81.2726C159.081 122.318 129.447 156.251 90.9538 161.759C87.3533 162.274 83.6707 162.54 79.9335 162.54C75.6174 162.54 71.3834 162.185 67.2543 161.502C29.572 155.273 0.786133 121.719 0.786133 81.2679C0.786133 36.3848 36.2215 0 79.9335 0C123.645 0 159.081 36.3848 159.081 81.2679V81.2726Z" fill="url(#paint0_linear_3644_4421)"/>
<path d="M104.723 32.4868H55.1496C41.454 32.4868 30.3152 43.924 30.3152 57.9866V104.554C30.3152 118.617 41.454 130.054 55.1496 130.054H104.723C118.418 130.054 129.557 118.617 129.557 104.554V57.9866C129.557 43.924 118.418 32.4868 104.723 32.4868ZM39.0749 57.9866C39.0749 48.8845 46.2851 41.4812 55.1496 41.4812H104.723C113.587 41.4812 120.797 48.8845 120.797 57.9866V104.554C120.797 113.656 113.587 121.06 104.723 121.06H55.1496C46.2851 121.06 39.0749 113.656 39.0749 104.554V57.9866Z" fill="white"/>
<path d="M79.9338 104.994C92.6723 104.994 103.036 94.3525 103.036 81.2727C103.036 68.1929 92.6723 57.5513 79.9338 57.5513C67.1953 57.5513 56.8313 68.1929 56.8313 81.2727C56.8313 94.3525 67.1953 104.994 79.9338 104.994ZM79.9338 66.5504C87.8412 66.5504 94.272 73.1534 94.272 81.2727C94.272 89.392 87.8412 95.9951 79.9338 95.9951C72.0263 95.9951 65.5956 89.392 65.5956 81.2727C65.5956 73.1534 72.0263 66.5504 79.9338 66.5504Z" fill="white"/>
<path d="M105.178 61.3797C108.61 61.3797 111.404 58.511 111.404 54.9872C111.404 51.4634 108.61 48.5947 105.178 48.5947C101.746 48.5947 98.9526 51.4634 98.9526 54.9872C98.9526 58.511 101.746 61.3797 105.178 61.3797Z" fill="white"/>
</svg>
