<svg width="159" height="164" viewBox="0 0 159 164" fill="none" xmlns="http://www.w3.org/2000/svg">
<path d="M158.295 81.8131C158.295 122.859 128.661 156.791 90.1676 162.299C86.5671 162.814 82.8846 163.081 79.1473 163.081C74.8313 163.081 70.5973 162.725 66.4681 162.042C28.7858 155.813 0 122.26 0 81.8084C0 36.9253 35.4353 0.540527 79.1473 0.540527C122.859 0.540527 158.295 36.9253 158.295 81.8084V81.8131Z" fill="#007EBB"/>
<path d="M38.5116 54.3666C36.4015 52.3544 35.3486 49.8648 35.3486 46.9025C35.3486 43.9403 36.4015 41.3383 38.5116 39.326C40.6218 37.3138 43.3381 36.3076 46.6697 36.3076C50.0013 36.3076 52.6083 37.3138 54.7139 39.326C56.8241 41.3383 57.8769 43.8654 57.8769 46.9025C57.8769 49.9397 56.8241 52.3544 54.7139 54.3666C52.6037 56.3789 49.9238 57.385 46.6697 57.385C43.4156 57.385 40.6218 56.3789 38.5116 54.3666ZM56.0994 65.9068V127.571H37.1261V65.9068H56.0994Z" fill="#FEFFFC"/>
<path d="M119.272 71.9952C123.406 76.6047 125.475 82.9363 125.475 90.9948V126.486H107.45V93.4984C107.45 89.4364 106.424 86.2776 104.373 84.0267C102.323 81.7757 99.5652 80.6526 96.1014 80.6526C92.6376 80.6526 89.8803 81.7804 87.8294 84.0267C85.7784 86.2776 84.753 89.4364 84.753 93.4984V126.486H66.6228V65.7384H84.753V73.7968C86.5897 71.1107 89.0645 68.9908 92.1773 67.4277C95.2856 65.8694 98.7858 65.0879 102.673 65.0879C109.601 65.0879 115.134 67.3949 119.268 71.9998L119.272 71.9952Z" fill="#FEFFFC"/>
</svg>
