<svg width="159" height="163" viewBox="0 0 159 163" fill="none" xmlns="http://www.w3.org/2000/svg">
<path d="M158.295 81.2726C158.295 122.318 128.661 156.251 90.1677 161.759C86.5672 162.274 82.8846 162.541 79.1474 162.541C74.8313 162.541 70.5973 162.185 66.4681 161.502C28.7858 155.273 0 121.719 0 81.2679C0 36.3848 35.4354 0 79.1474 0C122.859 0 158.295 36.3848 158.295 81.2679V81.2726Z" fill="#FF4500"/>
<path d="M128.784 79.2086C127.454 73.0173 121.944 68.9975 116.474 70.2376C114.615 70.6588 113.006 71.6461 111.734 72.9939C104.378 67.5046 94.329 63.8825 83.1082 63.1946L88.4816 40.2312L104.415 44.1482C104.679 48.622 108.289 52.1645 112.71 52.1645C117.131 52.1645 121.032 48.3412 121.032 43.6194C121.032 38.8975 117.308 35.0742 112.71 35.0742C109.378 35.0742 106.516 37.0865 105.185 39.9879L87.8982 35.7387C86.54 35.4064 85.1727 36.2628 84.8446 37.6621L78.8969 63.0729C66.3817 63.1384 55.088 66.8588 46.98 72.8114C46.5835 72.4324 46.1551 72.0767 45.6857 71.7725C40.964 68.6792 34.4421 70.5043 31.1196 75.8486C27.7971 81.1928 28.9274 88.0345 33.649 91.1325C33.9271 91.315 34.2142 91.4788 34.5059 91.6285C34.319 92.8219 34.2096 94.0339 34.2096 95.2694C34.2096 113.052 54.3679 127.466 79.2297 127.466C104.091 127.466 124.25 113.052 124.25 95.2694C124.25 94.0246 124.14 92.7984 123.949 91.5911C127.782 89.3027 129.874 84.3188 128.775 79.2132L128.784 79.2086ZM56.1636 87.8099C56.1636 83.7572 59.3631 80.4767 63.3054 80.4767C67.2477 80.4767 70.4471 83.7619 70.4471 87.8099C70.4471 91.8578 67.2477 95.143 63.3054 95.143C59.3631 95.143 56.1636 91.8578 56.1636 87.8099ZM95.8467 110.97C93.6545 113.019 87.5929 117.788 78.7146 117.872C78.6326 117.872 78.5551 117.872 78.4731 117.872C69.4809 117.872 63.3373 113.052 61.0995 110.965C60.3839 110.296 60.3292 109.159 60.981 108.419C61.6327 107.685 62.7402 107.628 63.4603 108.298C65.411 110.118 70.789 114.344 78.6827 114.264C86.3532 114.189 91.5899 110.067 93.4904 108.298C94.2059 107.628 95.318 107.685 95.9697 108.419C96.6215 109.154 96.5668 110.296 95.8512 110.965L95.8467 110.97ZM94.9853 95.143C91.0384 95.143 87.8435 91.8578 87.8435 87.8099C87.8435 83.7619 91.0429 80.4767 94.9853 80.4767C98.9276 80.4767 102.127 83.7619 102.127 87.8099C102.127 91.8578 98.9276 95.143 94.9853 95.143Z" fill="white"/>
</svg>
