<svg width="78" height="84" viewBox="0 0 78 84" fill="none" xmlns="http://www.w3.org/2000/svg">
<path d="M65.8125 13.125H12.1875C10.8946 13.125 9.65459 13.6781 8.74035 14.6627C7.82611 15.6473 7.3125 16.9826 7.3125 18.375V60.375C7.3125 61.7674 7.82611 63.1027 8.74035 64.0873C9.65459 65.0719 10.8946 65.625 12.1875 65.625H30.3073L34.8197 73.5755C35.2518 74.3517 35.8628 74.9944 36.5936 75.4413C37.3243 75.8882 38.1499 76.1241 38.9903 76.1261C39.8306 76.1281 40.6572 75.8961 41.3897 75.4526C42.1223 75.0092 42.7359 74.3693 43.1712 73.5952L47.6927 65.625H65.8125C67.1054 65.625 68.3454 65.0719 69.2596 64.0873C70.1739 63.1027 70.6875 61.7674 70.6875 60.375V18.375C70.6875 16.9826 70.1739 15.6473 69.2596 14.6627C68.3454 13.6781 67.1054 13.125 65.8125 13.125ZM65.8125 60.375H47.6927C46.8545 60.3769 46.0308 60.6105 45.3005 61.0535C44.5701 61.4965 43.9576 62.1339 43.5216 62.9048L39 70.875L34.4754 62.9016C34.039 62.1319 33.4268 61.4956 32.6971 61.0533C31.9674 60.611 31.1446 60.3775 30.3073 60.375H12.1875V18.375H65.8125V60.375Z" fill="#FF5861"/>
<path d="M41.6605 24.9091L41.1065 45.2784H35.9077L35.3395 24.9091H41.6605ZM38.5071 54.3693C37.5696 54.3693 36.7647 54.0379 36.0923 53.375C35.42 52.7027 35.0885 51.8977 35.098 50.9602C35.0885 50.0322 35.42 49.2367 36.0923 48.5739C36.7647 47.911 37.5696 47.5795 38.5071 47.5795C39.4067 47.5795 40.1974 47.911 40.8793 48.5739C41.5611 49.2367 41.9067 50.0322 41.9162 50.9602C41.9067 51.5852 41.741 52.1581 41.419 52.679C41.1065 53.1903 40.6946 53.6023 40.1832 53.9148C39.6719 54.2178 39.1132 54.3693 38.5071 54.3693Z" fill="#FF5861"/>
</svg>
