<svg width="159" height="163" viewBox="0 0 159 163" fill="none" xmlns="http://www.w3.org/2000/svg">
<path d="M158.908 81.2726C158.908 122.318 129.274 156.251 90.7807 161.759C87.1802 162.274 83.4977 162.54 79.7604 162.54C75.4444 162.54 71.2103 162.185 67.0811 161.502C29.3989 155.273 0.613037 121.719 0.613037 81.2679C0.613037 36.3848 36.0484 0 79.7604 0C123.472 0 158.908 36.3848 158.908 81.2679V81.2726Z" fill="black"/>
<path d="M120.378 64.3509V79.8782C117.73 79.6161 114.302 78.9984 110.497 77.5664C105.534 75.6992 101.837 73.1441 99.4218 71.1645V102.556L99.3626 102.458C99.4036 103.08 99.4218 103.712 99.4218 104.353C99.4218 119.946 87.0707 132.633 71.8802 132.633C56.6897 132.633 44.3386 119.941 44.3386 104.353C44.3386 88.7649 56.6897 76.0689 71.8802 76.0689C73.366 76.0689 74.8244 76.1906 76.2509 76.4245V91.7319C74.8791 91.2265 73.4116 90.955 71.8802 90.955C64.6883 90.955 58.8318 96.9638 58.8318 104.353C58.8318 111.742 64.6883 117.751 71.8802 117.751C79.0721 117.751 84.9286 111.738 84.9286 104.353C84.9286 104.077 84.924 103.801 84.9058 103.525V42.52H100.023C100.078 43.835 100.133 45.1594 100.183 46.4744C100.283 49.0623 101.181 51.5472 102.744 53.5829C104.581 55.9742 107.288 58.7539 111.098 60.9721C114.662 63.0452 118.008 63.9344 120.378 64.3556V64.3509Z" fill="#FF004F"/>
<path d="M115.182 51.7439V67.2712C112.534 67.0092 109.107 66.3915 105.301 64.9595C100.338 63.0923 96.6418 60.5371 94.2263 58.5576V89.9491L94.167 89.8508C94.208 90.4732 94.2263 91.105 94.2263 91.7461C94.2263 107.339 81.8751 120.026 66.6846 120.026C51.4941 120.026 39.1431 107.334 39.1431 91.7461C39.1431 76.158 51.4941 63.4619 66.6846 63.4619C68.1704 63.4619 69.6289 63.5836 71.0554 63.8176V79.125C69.6836 78.6195 68.216 78.3481 66.6846 78.3481C59.4927 78.3481 53.6362 84.3569 53.6362 91.7461C53.6362 99.1354 59.4927 105.144 66.6846 105.144C73.8765 105.144 79.7331 99.1307 79.7331 91.7461C79.7331 91.47 79.7285 91.1939 79.7103 90.9178V29.9131H94.8279C94.8826 31.2281 94.9372 32.5524 94.9874 33.8674C95.0876 36.4553 95.9855 38.9403 97.5488 40.9759C99.3855 43.3673 102.093 46.147 105.903 48.3652C109.467 50.4383 112.812 51.3275 115.182 51.7486V51.7439Z" fill="#00F7EF"/>
<path d="M118.491 58.5291V74.0564C115.843 73.7943 112.416 73.1766 108.61 71.7446C103.647 69.8774 99.9506 67.3223 97.5351 65.3428V96.7343L97.4759 96.636C97.5169 97.2584 97.5351 97.8902 97.5351 98.5313C97.5351 114.124 85.184 126.811 69.9935 126.811C54.803 126.811 42.4519 114.119 42.4519 98.5313C42.4519 82.9432 54.803 70.2471 69.9935 70.2471C71.4793 70.2471 72.9377 70.3688 74.3642 70.6028V85.9101C72.9924 85.4047 71.5248 85.1333 69.9935 85.1333C62.8016 85.1333 56.9451 91.142 56.9451 98.5313C56.9451 105.921 62.8016 111.929 69.9935 111.929C77.1854 111.929 83.0419 105.916 83.0419 98.5313C83.0419 98.2552 83.0374 97.9791 83.0192 97.703V36.6982H98.1367C98.1914 38.0132 98.2461 39.3376 98.2962 40.6526C98.3965 43.2405 99.2943 45.7254 100.858 47.7611C102.694 50.1524 105.402 52.9322 109.212 55.1504C112.776 57.2235 116.121 58.1126 118.491 58.5338V58.5291Z" fill="white"/>
</svg>
