<svg width="159" height="163" viewBox="0 0 159 163" fill="none" xmlns="http://www.w3.org/2000/svg">
<path d="M158.295 81.2726C158.295 122.318 128.661 156.251 90.1677 161.759C86.5672 162.274 82.8846 162.54 79.1473 162.54C74.8313 162.54 70.5973 162.185 66.4681 161.502C28.7858 155.273 0 121.719 0 81.2679C0 36.3848 35.4353 0 79.1473 0C122.859 0 158.295 36.3848 158.295 81.2679V81.2726Z" fill="white"/>
<path d="M125.927 51.5C123.73 53.779 120.685 55.1876 117.313 55.1876C116.884 55.1876 116.456 55.1642 116.041 55.1174C119.56 52.9507 122.276 49.5579 123.63 45.5099C123.63 45.5099 123.634 45.5099 123.634 45.5053C123.821 44.9624 123.981 44.4149 124.108 43.8486C121.324 46.9045 117.518 48.9729 113.247 49.4643C112.591 49.5438 111.926 49.5813 111.251 49.5813C111.037 49.5813 110.832 49.5766 110.627 49.5626C109.182 48.0042 107.459 46.7173 105.55 45.772C103.421 44.705 101.042 44.0779 98.531 43.9984C98.3259 43.9843 98.1208 43.9797 97.9066 43.9797C95.7782 43.9797 93.7364 44.3681 91.8496 45.0841C91.3665 45.2666 90.897 45.4631 90.4367 45.6924C84.4571 48.5705 80.3188 54.8085 80.3188 62.0387C80.3188 63.5221 80.4966 64.9635 80.8202 66.3393C78.988 66.2645 77.1741 66.0819 75.3966 65.8105C74.8269 65.7169 74.2572 65.6187 73.6921 65.5063C69.1573 64.6406 64.8321 63.1524 60.8123 61.1308C57.2163 59.3244 53.8619 57.0969 50.8129 54.5043C48.2469 52.333 45.8998 49.9089 43.8033 47.2601C43.7121 47.1478 43.621 47.0308 43.5344 46.9185C43.4113 47.1104 43.2974 47.3023 43.1971 47.5035C41.7296 50.1382 40.9001 53.1847 40.9001 56.4324C40.9001 56.5307 40.9001 56.6383 40.9046 56.7366C40.9411 59.17 41.4424 61.4865 42.3403 63.5923C42.7231 64.5283 43.188 65.4127 43.7213 66.2504C45.2936 68.7353 47.4403 70.8038 49.9743 72.2358C50.0882 72.3106 50.2067 72.3715 50.3252 72.4276C50.1429 72.4651 49.956 72.4978 49.7692 72.5166C49.2496 72.5867 48.7118 72.6242 48.174 72.6242C45.4759 72.6242 42.9647 71.7584 40.9092 70.2843C40.8955 70.4388 40.8955 70.5979 40.8955 70.757C40.8955 75.914 43.0011 80.5657 46.3738 83.8461C48.9989 86.42 52.3944 88.1468 56.1681 88.6522C54.8099 89.1623 53.3424 89.4384 51.8156 89.4384C50.1612 89.4384 48.5751 89.1155 47.1258 88.5212C49.2861 95.7326 55.726 101.021 63.401 101.255C58.7112 106.257 52.1255 109.365 44.8379 109.365C40.3076 109.365 36.0508 108.162 32.3591 106.056C41.2328 113.941 52.8046 118.705 65.461 118.705C93.431 118.705 116.101 95.4284 116.101 66.709C116.101 65.1273 116.032 63.5643 115.895 62.02C120.521 60.1434 124.19 56.3107 125.927 51.5046V51.5Z" fill="white"/>
<path d="M105.531 44.6157H119.025L89.5448 78.3097L124.226 124.16H97.0709L75.8021 96.3519L51.4657 124.16H37.9637L69.4957 88.1201L36.226 44.6157H64.0704L83.2955 70.0331L105.531 44.6157ZM100.795 116.083H108.272L60.0075 52.2683H51.9838L100.795 116.083Z" fill="black"/>
</svg>
